<?xml version="1.0" encoding="utf-8"?>
<!-- Generator: Adobe Illustrator 20.1.0, SVG Export Plug-In . SVG Version: 6.00 Build 0)  -->
<svg version="1.1" id="Layer_1" xmlns="http://www.w3.org/2000/svg" xmlns:xlink="http://www.w3.org/1999/xlink" x="0px" y="0px"
	 viewBox="0 0 75 75" style="enable-background:new 0 0 75 75;" xml:space="preserve">
<style type="text/css">
	.st0{fill:#4D636F;}
</style>
<title>Artboard 1</title>
<path class="st0" d="M13,42.4L8.2,21.1h50.1l-3,21.3H13z M46.7,61.6c-1.3,0-2.4-1.1-2.4-2.4c0-1.3,1.1-2.4,2.4-2.4
	c1.3,0,2.4,1.1,2.4,2.4C49,60.5,48,61.5,46.7,61.6z M21.9,61.6c-1.3,0-2.4-1.1-2.4-2.4c0-1.3,1.1-2.4,2.4-2.4c1.3,0,2.4,1.1,2.4,2.4
	C24.2,60.5,23.2,61.5,21.9,61.6z M69.7,9.3h-7.8c-1.2,0-2.2,0.8-2.4,2l-0.7,5.1H5.2c-1.4,0-2.4,1.2-2.4,2.5c0,0.1,0,0.3,0,0.4
	l5.9,26c0.2,1.1,1.2,1.9,2.4,1.9h43.5L53.9,52H11.8c-1.3,0-2.4,1.1-2.4,2.4c0,1.3,1.1,2.4,2.4,2.4h3.4c-0.3,0.8-0.5,1.7-0.5,2.6
	c0,3.9,3.2,7.1,7.1,7.1s7.1-3.2,7.1-7.1c0-0.9-0.2-1.8-0.5-2.6h11.6c-0.3,0.8-0.5,1.7-0.5,2.6c0,3.9,3.2,7.1,7.1,7.1
	c3.9,0,7.1-3.2,7.1-7.1c0-0.9-0.2-1.8-0.5-2.6H56c1.2,0,2.2-0.8,2.4-2l5.7-40.5h5.8c1.3,0,2.4-1.1,2.4-2.4
	C72.2,10.5,71.1,9.4,69.7,9.3z"/>
</svg>
