<?xml version="1.0" encoding="utf-8"?>
<!-- Generator: Adobe Illustrator 19.2.1, SVG Export Plug-In . SVG Version: 6.00 Build 0)  -->
<svg version="1.1" id="Layer_1" xmlns="http://www.w3.org/2000/svg" xmlns:xlink="http://www.w3.org/1999/xlink" x="0px" y="0px"
	 viewBox="0 0 28 28" style="enable-background:new 0 0 28 28;" xml:space="preserve">
<style type="text/css">
	.st0{fill:#04A4CC;fill-rule:evenodd;clip-rule:evenodd;}
</style>
<path class="st0" d="M14,1.5C7.1,1.5,1.5,7.1,1.5,14c0,6.9,5.6,12.5,12.5,12.5S26.5,20.9,26.5,14C26.5,7.1,20.9,1.5,14,1.5z
	 M14,25.5C7.6,25.5,2.5,20.4,2.5,14C2.5,7.6,7.6,2.5,14,2.5S25.5,7.6,25.5,14C25.5,20.4,20.4,25.5,14,25.5z M12.9,16.3l-3.1-3.1
	l-1.1,1.1l3.1,3.1l1.1,1.1l1.1-1.1l0,0l6.8-7.2l-1.1-1.1L12.9,16.3z"/>
</svg>
